<mxfile host="Electron" modified="2024-02-22T15:59:05.340Z" agent="Mozilla/5.0 (Windows NT 10.0; Win64; x64) AppleWebKit/537.36 (KHTML, like Gecko) draw.io/23.0.2 Chrome/120.0.6099.109 Electron/28.1.0 Safari/537.36" etag="a7zo95v2KtlhsIeHOHq_" version="23.0.2" type="device">
  <diagram name="第 1 页" id="PokcHhzCWlcKMsl2QT3K">
    <mxGraphModel dx="1206" dy="702" grid="1" gridSize="10" guides="1" tooltips="1" connect="1" arrows="1" fold="1" page="1" pageScale="1" pageWidth="1169" pageHeight="827" math="0" shadow="0">
      <root>
        <mxCell id="0" />
        <mxCell id="1" parent="0" />
        <mxCell id="G2ngDqq_GA7Xadj0sBJ4-5" value="" style="group" parent="1" vertex="1" connectable="0">
          <mxGeometry x="350" y="140" width="284.24" height="90" as="geometry" />
        </mxCell>
        <mxCell id="G2ngDqq_GA7Xadj0sBJ4-1" value="" style="image;sketch=0;aspect=fixed;html=1;points=[];align=center;fontSize=16;image=img/lib/mscae/Cache_Redis_Product.svg;" parent="G2ngDqq_GA7Xadj0sBJ4-5" vertex="1">
          <mxGeometry x="189" y="10" width="95.24" height="80" as="geometry" />
        </mxCell>
        <mxCell id="G2ngDqq_GA7Xadj0sBJ4-4" value="host: lei01&lt;br style=&quot;font-size: 16px;&quot;&gt;&lt;div style=&quot;&quot;&gt;&lt;span style=&quot;background-color: initial;&quot;&gt;port: 6379&lt;/span&gt;&lt;/div&gt;master" style="shape=note;whiteSpace=wrap;html=1;backgroundOutline=1;darkOpacity=0.05;fillColor=#fff2cc;strokeColor=#d6b656;fontSize=16;align=center;" parent="G2ngDqq_GA7Xadj0sBJ4-5" vertex="1">
          <mxGeometry width="160" height="80" as="geometry" />
        </mxCell>
        <mxCell id="G2ngDqq_GA7Xadj0sBJ4-6" value="" style="group" parent="1" vertex="1" connectable="0">
          <mxGeometry x="140" y="410" width="284.24" height="90" as="geometry" />
        </mxCell>
        <mxCell id="G2ngDqq_GA7Xadj0sBJ4-7" value="" style="image;sketch=0;aspect=fixed;html=1;points=[];align=center;fontSize=16;image=img/lib/mscae/Cache_Redis_Product.svg;" parent="G2ngDqq_GA7Xadj0sBJ4-6" vertex="1">
          <mxGeometry x="189" y="10" width="95.24" height="80" as="geometry" />
        </mxCell>
        <mxCell id="G2ngDqq_GA7Xadj0sBJ4-8" value="host: lei01&lt;br style=&quot;font-size: 16px;&quot;&gt;&lt;div style=&quot;&quot;&gt;&lt;span style=&quot;background-color: initial;&quot;&gt;port: 6380&lt;/span&gt;&lt;/div&gt;salve" style="shape=note;whiteSpace=wrap;html=1;backgroundOutline=1;darkOpacity=0.05;fillColor=#fff2cc;strokeColor=#d6b656;fontSize=16;align=center;" parent="G2ngDqq_GA7Xadj0sBJ4-6" vertex="1">
          <mxGeometry width="160" height="80" as="geometry" />
        </mxCell>
        <mxCell id="G2ngDqq_GA7Xadj0sBJ4-9" value="" style="group" parent="1" vertex="1" connectable="0">
          <mxGeometry x="580" y="410" width="284.24" height="90" as="geometry" />
        </mxCell>
        <mxCell id="G2ngDqq_GA7Xadj0sBJ4-10" value="" style="image;sketch=0;aspect=fixed;html=1;points=[];align=center;fontSize=16;image=img/lib/mscae/Cache_Redis_Product.svg;" parent="G2ngDqq_GA7Xadj0sBJ4-9" vertex="1">
          <mxGeometry x="189" y="10" width="95.24" height="80" as="geometry" />
        </mxCell>
        <mxCell id="G2ngDqq_GA7Xadj0sBJ4-11" value="host: lei02&lt;br style=&quot;border-color: var(--border-color);&quot;&gt;&lt;div style=&quot;border-color: var(--border-color);&quot;&gt;port: 6381&lt;/div&gt;salve" style="shape=note;whiteSpace=wrap;html=1;backgroundOutline=1;darkOpacity=0.05;fillColor=#fff2cc;strokeColor=#d6b656;fontSize=16;align=center;" parent="G2ngDqq_GA7Xadj0sBJ4-9" vertex="1">
          <mxGeometry width="160" height="80" as="geometry" />
        </mxCell>
        <mxCell id="G2ngDqq_GA7Xadj0sBJ4-12" style="rounded=0;orthogonalLoop=1;jettySize=auto;html=1;entryX=0.535;entryY=0.013;entryDx=0;entryDy=0;entryPerimeter=0;" parent="1" source="G2ngDqq_GA7Xadj0sBJ4-1" target="G2ngDqq_GA7Xadj0sBJ4-7" edge="1">
          <mxGeometry relative="1" as="geometry" />
        </mxCell>
        <mxCell id="G2ngDqq_GA7Xadj0sBJ4-13" style="rounded=0;orthogonalLoop=1;jettySize=auto;html=1;entryX=0.483;entryY=-0.012;entryDx=0;entryDy=0;entryPerimeter=0;" parent="1" source="G2ngDqq_GA7Xadj0sBJ4-1" target="G2ngDqq_GA7Xadj0sBJ4-10" edge="1">
          <mxGeometry relative="1" as="geometry" />
        </mxCell>
      </root>
    </mxGraphModel>
  </diagram>
</mxfile>
